HIERARCHY
ROOT Hips
{
	OFFSET 0.000000 0.000000 0.000000 
	CHANNELS 6 Xposition Yposition Zposition Yrotation Zrotation Xrotation 
	JOINT Lumbar
	{
		OFFSET 0.000000 0.000000 0.000000 
		CHANNELS 3 Zrotation Xrotation Yrotation
		JOINT Neck
		{
			OFFSET 0.000000 0.445665 0.000000 
			CHANNELS 3 Zrotation Xrotation Yrotation
			End Site
			{
				OFFSET 0.000000 0.227535 0.000000 
			}
		}
		JOINT RightShoulder
		{
			OFFSET 0.019635 0.377685 0.194865 
			CHANNELS 3 Zrotation Xrotation Yrotation
			JOINT RightElbow
			{
				OFFSET 0.000000 -0.243375 0.000000 
				CHANNELS 2 Zrotation Yrotation
				JOINT RightWrist
				{
					OFFSET 0.000000 -0.264825 0.000000 
					CHANNELS 2 Zrotation Xrotation
					End Site
					{
						OFFSET 0.006600 -0.176220 0.000990 
					}
				}
			}
		}
		JOINT LeftShoulder
		{
			OFFSET 0.019635 0.377685 -0.194865 
			CHANNELS 3 Zrotation Xrotation Yrotation
			JOINT LeftElbow
			{
				OFFSET 0.000000 -0.243375 0.000000 
				CHANNELS 2 Zrotation Yrotation
				JOINT LeftWrist
				{
					OFFSET 0.000000 -0.264825 0.000000 
					CHANNELS 2 Zrotation Xrotation
					End Site
					{
						OFFSET 0.006600 -0.176220 -0.000990 
					}
				}
			}
		}
	}
	JOINT RightHip
	{
		OFFSET 0.052140 -0.069960 0.075570 
		CHANNELS 3 Zrotation Xrotation Yrotation
		JOINT RightKnee
		{
			OFFSET 0.000000 -0.402270 0.000000 
			CHANNELS 1 Zrotation
			JOINT RightAnkle
			{
				OFFSET 0.000000 -0.404085 0.000000 
				CHANNELS 3 Zrotation Xrotation Yrotation
				End Site
				{
					OFFSET 0.204105 -0.089430 0.008415 
				}
			}
		}
	}
	JOINT LeftHip
	{
		OFFSET 0.052140 -0.069960 -0.075570 
		CHANNELS 3 Zrotation Xrotation Yrotation
		JOINT LeftKnee
		{
			OFFSET 0.000000 -0.402270 0.000000 
			CHANNELS 1 Zrotation
			JOINT LeftAnkle
			{
				OFFSET 0.000000 -0.404085 0.000000 
				CHANNELS 3 Zrotation Xrotation Yrotation
				End Site
				{
					OFFSET 0.204105 -0.089430 -0.008415 
				}
			}
		}
	}
}
MOTION
Frames: 19
Frame Time: 0.02
0.00042 5e-05 5e-05 -175.23874 -40.28102 -0.89823 50.19702 1.56788 -5.52675 0.69142 -0.67026 -0.9956 -19.69661 -6.28325 -5.0186 35.154 160.54738 26.15441 12.531 -23.39683 16.65134 -21.86148 48.33849 -73.11785 4.32547 3.86006 41.97946 -0.20232 -5.04367 -18.95862 -6.00933 -2.29091 -3.31839 45.8717 4.45501 11.57349 -24.60693 -6.62873 0.76909 2.63953
0.00067 8e-05 0.00018 -175.24365 -40.2777 -0.90865 50.17518 1.57028 -5.49357 0.68509 -0.65744 -0.99624 -19.72239 -6.58978 -4.00691 35.13519 154.0138 24.45012 11.41467 -23.54804 15.76643 -20.04107 48.35652 -79.19161 6.47002 2.72239 41.98425 -0.26596 -5.41848 -18.96046 -6.01216 -2.25275 -3.29869 45.89469 4.39673 11.30176 -24.60952 -6.61645 0.80041 2.65244
0.00091 0.00011 0.0003 -175.24854 -40.27438 -0.91905 50.15339 1.57267 -5.46048 0.6788 -0.64466 -0.99689 -19.74811 -6.89537 -2.99834 35.11647 147.50042 22.75109 10.30178 -23.69863 14.88531 -18.22856 48.37453 -85.23898 8.60525 1.58965 41.98903 -0.32945 -5.79239 -18.9623 -6.01499 -2.21469 -3.27904 45.91765 4.33861 11.03072 -24.61211 -6.60421 0.83165 2.66532
0.00116 0.00013 0.00043 -175.25343 -40.27107 -0.92945 50.13161 1.57507 -5.4274 0.67249 -0.63188 -0.99753 -19.77382 -7.20096 -1.98978 35.09771 140.98697 21.05205 9.18889 -23.84934 14.00334 -16.41421 48.39251 -91.29253 10.74267 0.45576 41.9938 -0.39291 -6.16608 -18.96414 -6.01782 -2.17665 -3.25939 45.94057 4.2805 10.7598 -24.61469 -6.59197 0.86287 2.6782
0.0014 0.00016 0.00055 -175.25834 -40.26775 -0.93985 50.10981 1.57745 -5.39424 0.66615 -0.61908 -0.99818 -19.7996 -7.5075 -0.97806 35.07887 134.45332 19.34774 8.07257 -24.00075 13.11709 -14.59091 48.41052 -97.37604 12.89069 -0.68374 41.99858 -0.4565 -6.54056 -18.96598 -6.02065 -2.13853 -3.23971 45.96353 4.22224 10.48823 -24.61726 -6.57969 0.89418 2.6911
0.00165 0.00018 0.00067 -175.26321 -40.26444 -0.95026 50.08802 1.57987 -5.36127 0.65999 -0.60632 -0.99882 -19.82518 -7.81107 0.02383 35.06039 127.98293 17.65991 6.96694 -24.14963 12.24674 -12.80103 48.42852 -103.34758 14.99907 -1.8023 42.00339 -0.51977 -6.91325 -18.96782 -6.02348 -2.10059 -3.22013 45.98648 4.16443 10.21833 -24.61991 -6.56753 0.92524 2.70392
0.00189 0.00021 0.0008 -175.26815 -40.26111 -0.96064 50.06625 1.58223 -5.32799 0.65341 -0.5935 -0.99947 -19.85112 -8.12024 1.04429 35.04118 121.39271 15.94086 5.84107 -24.30337 11.34566 -10.94658 48.44649 -109.53545 17.18404 -2.96131 42.0081 -0.58362 -7.28913 -18.96966 -6.02631 -2.06234 -3.20036 46.0094 4.10576 9.94541 -24.62238 -6.55515 0.95677 2.71691
0.00213 0.00024 0.00092 -175.27303 -40.25783 -0.97105 50.04443 1.58464 -5.29495 0.64734 -0.58071 -1.00011 -19.87676 -8.42434 2.04781 35.02271 114.91239 14.25047 4.73378 -24.45273 10.47238 -9.15039 48.46456 -115.52822 19.29993 -4.08383 42.01294 -0.64693 -7.66206 -18.97151 -6.02914 -2.02437 -3.18076 46.03239 4.04789 9.6752 -24.62503 -6.54297 0.98787 2.72973
0.00238 0.00026 0.00105 -175.2778 -40.25449 -0.98151 50.02263 1.58712 -5.26234 0.64142 -0.56807 -1.00075 -19.90192 -8.722 3.0303 35.00486 108.5661 12.59493 3.64907 -24.59637 9.63505 -7.43014 48.48249 -121.26619 21.32564 -5.15872 42.0178 -0.70963 -8.0316 -18.97334 -6.03198 -1.98672 -3.16138 46.05531 3.99095 9.40843 -24.62784 -6.53102 1.01845 2.74236
0.00262 0.00029 0.00117 -175.28309 -40.25113 -0.99172 50.00098 1.58921 -5.22767 0.63322 -0.5549 -1.0014 -19.92948 -9.056 4.13285 34.98259 101.44753 10.73824 2.43402 -24.77184 8.59679 -5.28716 48.50042 -128.42118 23.85299 -6.49857 42.02213 -0.77601 -8.42133 -18.97518 -6.03478 -1.94715 -3.14077 46.07818 3.92852 9.12224 -24.62956 -6.51771 1.05204 2.75614
0.00287 0.00031 0.00129 -175.28737 -40.24805 -1.00242 49.97882 1.59214 -5.19709 0.63074 -0.54266 -1.00204 -19.95222 -9.31376 4.98263 34.97016 95.95952 9.30648 1.4943 -24.88085 7.97861 -4.0269 48.51885 -132.61823 25.33312 -7.2853 42.02787 -0.83451 -8.76798 -18.97704 -6.03766 -1.91168 -3.12275 46.10145 3.87777 8.87683 -24.63369 -6.50729 1.07928 2.76749
0.00312 0.00035 0.0014 -175.28801 -40.24373 -1.01462 49.95689 1.59733 -5.17985 0.63661 -0.53429 -1.00265 -19.95974 -9.35664 5.12685 34.98076 94.98506 9.04924 1.31547 -24.80026 8.55569 -5.28678 48.53469 -128.36196 23.82079 -6.49136 42.03499 -0.87207 -8.99923 -18.97873 -6.04071 -1.88727 -3.11183 46.12329 3.85858 8.74583 -24.64362 -6.50483 1.08899 2.77212
0.00338 0.00038 0.0015 -175.28776 -40.24007 -1.02727 49.93412 1.60339 -5.16638 0.64962 -0.52657 -1.00326 -19.96284 -9.32388 5.01885 35.00193 95.64505 9.21832 1.41278 -24.65454 9.54623 -7.41376 48.55185 -121.20155 21.28011 -5.15422 42.04404 -0.90154 -9.1866 -18.98049 -6.04386 -1.86702 -3.10353 46.14603 3.85119 8.65525 -24.65608 -6.50528 1.09237 2.77432
0.00364 0.00042 0.0016 -175.28856 -40.23736 -1.03959 49.91068 1.60909 -5.14972 0.66412 -0.51776 -1.00389 -19.9692 -9.32961 5.03488 35.02091 95.52584 9.18518 1.37933 -24.54302 10.32039 -9.0815 48.57091 -115.58506 19.28605 -4.10594 42.05379 -0.93431 -9.39235 -18.9824 -6.047 -1.84499 -3.09404 46.16998 3.83873 8.54458 -24.66795 -6.50439 1.09872 2.77766
0.0039 0.00045 0.00173 -175.28683 -40.22926 -1.05241 49.89175 1.61463 -5.13907 0.65851 -0.51249 -1.00444 -19.97004 -9.31836 5.01329 35.02904 95.54542 9.18366 1.36585 -24.41086 11.21758 -11.03088 48.57907 -109.00129 16.95026 -2.87686 42.05672 -0.96882 -9.60506 -18.98356 -6.04996 -1.82249 -3.08453 46.18701 3.82511 8.44145 -24.67761 -6.50358 1.10462 2.78084
0.00415 0.00049 0.00179 -175.28988 -40.2327 -1.06431 49.86313 1.62074 -5.11709 0.69664 -0.49977 -1.00517 -19.98164 -9.32387 5.00703 35.06209 95.68623 9.22362 1.37979 -24.3076 11.9541 -12.59326 48.61065 -103.76299 15.08871 -1.89861 42.07451 -0.99759 -9.79232 -18.98628 -6.05334 -1.80196 -3.07571 46.2188 3.81666 8.33194 -24.69229 -6.50329 1.10999 2.7838
0.00439 0.00055 0.00167 -175.30893 -40.26657 -1.07355 49.80882 1.62791 -5.06027 0.85232 -0.46843 -1.00641 -20.02167 -9.40079 5.13453 35.16282 95.54765 9.21499 1.3683 -24.28892 12.1667 -12.92536 48.70291 -102.78121 14.7332 -1.71975 42.13137 -1.01442 -9.92525 -18.99328 -6.05771 -1.78583 -3.06791 46.28985 3.82002 8.19747 -24.72165 -6.50364 1.11502 2.78662
0.00461 0.00061 0.00146 -175.3324 -40.31229 -1.08182 49.74461 1.6357 -4.99232 1.05196 -0.42922 -1.00785 -20.07335 -9.49634 5.28142 35.28795 95.50542 9.24174 1.37966 -24.30386 12.20059 -12.83081 48.81918 -103.274 14.89672 -1.81517 42.20344 -1.02546 -10.03333 -19.00182 -6.06252 -1.77152 -3.06074 46.37598 3.82816 8.05507 -24.75569 -6.50443 1.11977 2.78934
0.00484 0.00068 0.00129 -175.35214 -40.35336 -1.09059 49.68438 1.64334 -4.93136 1.23257 -0.39217 -1.00921 -20.12097 -9.57856 5.39909 35.40101 95.57009 9.29394 1.40424 -24.31048 12.30076 -12.89502 48.92708 -103.2194 14.86461 -1.80482 42.2695 -1.03779 -10.1491 -19.00966 -6.06721 -1.7564 -3.05346 46.45601 3.83375 7.91415 -24.78663 -6.50503 1.12494 2.79222
